<?xml version="1.0" standalone="no"?>
<!DOCTYPE svg PUBLIC "-//W3C//DTD SVG 20010904//EN"
 "http://www.w3.org/TR/2001/REC-SVG-20010904/DTD/svg10.dtd">
<svg version="1.0" xmlns="http://www.w3.org/2000/svg"
 width="192.000000pt" height="192.000000pt" viewBox="0 0 192.000000 192.000000"
 preserveAspectRatio="xMidYMid meet">

<g transform="translate(0.000000,192.000000) scale(0.100000,-0.100000)"
fill="#000000" stroke="none">
<path d="M770 1876 c-546 -122 -865 -676 -689 -1200 119 -356 428 -595 814
-631 78 -7 218 7 310 32 302 81 558 336 645 643 28 97 38 290 20 398 -17 107
-70 249 -126 340 -61 98 -197 235 -294 294 -93 58 -201 102 -302 122 -91 19
-297 20 -378 2z m315 -251 c83 -22 168 -70 229 -130 62 -61 96 -117 126 -205
28 -81 30 -227 5 -344 -16 -78 -90 -292 -107 -311 -4 -5 -8 72 -8 170 0 429
-62 592 -205 545 -49 -16 -159 -121 -244 -234 -99 -130 -166 -191 -231 -210
-66 -20 -94 -20 -154 -2 -71 22 -112 59 -152 138 -19 38 -34 71 -32 72 2 2 24
13 51 25 53 26 88 67 107 126 55 174 196 315 361 359 72 19 181 20 254 1z
m125 -333 c38 -38 58 -111 71 -257 13 -141 7 -211 -25 -281 -93 -203 -367
-253 -523 -97 -45 45 -93 134 -93 173 0 22 8 30 55 49 58 24 131 94 220 212
72 96 165 189 210 210 52 24 52 24 85 -9z m-662 -441 c44 -6 47 -8 54 -44 12
-56 51 -128 96 -174 l41 -42 -34 -11 c-33 -11 -95 -70 -95 -90 0 -59 -101 139
-130 254 -27 106 -26 129 1 121 11 -4 42 -10 67 -14z m739 -287 c-6 -7 -97 29
-97 38 0 4 4 8 10 8 5 0 27 23 47 51 l38 50 3 -72 c2 -39 1 -73 -1 -75z m-201
-94 c4 -39 10 -73 14 -75 5 -3 37 -8 72 -11 98 -10 98 -12 28 -87 -81 -87
-149 -121 -239 -121 -101 0 -184 45 -266 144 -25 30 -32 45 -24 51 6 4 49 10
95 14 l83 7 7 69 7 69 61 -6 c33 -3 79 -1 101 4 22 6 43 10 47 11 4 1 10 -31
14 -69z m-437 -161 c43 -63 113 -126 168 -151 63 -28 156 -34 233 -14 80 21
152 73 211 155 38 52 48 60 77 60 50 1 121 -39 143 -81 20 -37 -212 -151 -361
-178 -103 -19 -265 -14 -366 10 -94 21 -278 105 -309 140 -18 20 -18 21 6 46
34 37 88 63 129 63 31 0 39 -5 69 -50z"/>
<path d="M902 722 c-9 -24 15 -34 80 -35 65 -1 108 14 108 37 0 19 -180 17
-188 -2z"/>
</g>
</svg>
