<?xml version="1.0" standalone="no"?>
<!DOCTYPE svg PUBLIC "-//W3C//DTD SVG 20010904//EN"
 "http://www.w3.org/TR/2001/REC-SVG-20010904/DTD/svg10.dtd">
<svg version="1.0" xmlns="http://www.w3.org/2000/svg"
 width="266.000000pt" height="266.000000pt" viewBox="0 0 266.000000 266.000000"
 preserveAspectRatio="xMidYMid meet">

<g transform="translate(0.000000,266.000000) scale(0.100000,-0.100000)"
fill="#000000" stroke="none">
<path d="M398 1713 c-28 -33 -37 -60 -31 -97 6 -41 13 -44 37 -17 16 17 16 19
-4 24 -12 3 -20 13 -20 27 0 11 5 18 10 15 6 -3 10 1 10 9 0 9 9 21 20 28 11
7 20 16 20 20 0 14 -27 8 -42 -9z"/>
<path d="M2240 1722 c0 -5 7 -15 15 -22 8 -7 15 -19 15 -27 0 -8 5 -11 10 -8
6 3 10 -3 10 -14 0 -11 -9 -22 -20 -26 -19 -6 -19 -7 -2 -30 20 -28 28 -22 37
25 5 27 1 43 -17 69 -23 34 -48 51 -48 33z"/>
<path d="M260 1575 c-14 -16 -8 -18 28 -8 18 4 20 8 10 14 -18 12 -24 11 -38
-6z"/>
<path d="M2197 1577 c-6 -16 22 -87 34 -87 6 0 5 8 -1 19 -15 29 -12 44 7 37
13 -5 11 0 -6 18 -28 30 -27 30 -34 13z"/>
<path d="M2368 1584 c-3 -3 5 -16 19 -30 30 -30 37 -27 24 10 -10 24 -30 34
-43 20z"/>
<path d="M435 1560 c-18 -20 -18 -21 0 -14 16 6 17 4 11 -22 -6 -27 -5 -28 9
-10 16 21 21 66 7 66 -5 0 -17 -9 -27 -20z"/>
<path d="M310 1517 c25 -27 31 -40 22 -45 -8 -5 0 -12 22 -20 27 -10 40 -9 69
3 20 8 38 19 42 24 3 6 -10 4 -29 -4 -49 -21 -59 -20 -46 5 9 16 8 18 -5 14
-10 -4 -15 0 -15 10 0 9 -4 16 -10 16 -5 0 -7 -7 -4 -15 10 -24 -7 -18 -46 18
l-35 32 35 -38z"/>
<path d="M1094 1507 c-22 -24 -63 -72 -93 -106 -29 -34 -55 -60 -58 -57 -3 3
3 35 12 71 28 104 6 99 -70 -14 -50 -75 -98 -112 -158 -121 l-42 -6 27 -14
c24 -11 34 -10 73 4 36 14 55 31 87 77 23 32 43 57 44 56 2 -1 -1 -20 -6 -42
-15 -64 -13 -85 10 -85 11 0 20 4 20 9 0 11 117 153 135 164 9 4 3 -25 -16
-79 -31 -86 -34 -134 -11 -142 8 -2 12 10 12 41 0 31 14 77 45 148 24 57 45
109 45 116 0 27 -20 20 -56 -20z"/>
<path d="M2354 1518 l-29 -33 33 29 c30 28 37 36 29 36 -2 0 -16 -15 -33 -32z"/>
<path d="M1790 1500 c-11 -16 -39 -71 -62 -122 -22 -51 -46 -96 -52 -100 -15
-11 -66 -10 -66 1 0 5 7 14 16 22 16 13 44 62 44 77 0 6 -7 13 -16 16 -24 9
-94 -67 -94 -102 0 -25 -1 -25 -17 -10 -14 14 -15 22 -5 43 22 47 16 65 -21
65 -26 0 -43 -11 -87 -55 -44 -44 -61 -55 -87 -55 -17 0 -35 5 -38 11 -18 29
40 114 69 103 18 -7 20 4 7 25 -8 12 -11 12 -26 0 -41 -34 -69 -66 -81 -96
-22 -51 -36 -51 -34 -2 3 68 2 69 -31 69 -43 0 -99 -60 -99 -106 0 -39 15 -46
54 -27 22 12 34 12 56 3 15 -6 63 -10 107 -9 43 2 84 0 90 -4 7 -4 26 -1 43 8
25 13 41 14 87 5 31 -5 90 -10 130 -10 70 0 73 1 63 19 -17 32 -12 52 32 141
23 47 46 93 50 103 12 28 -9 20 -32 -13z m-580 -152 c0 -16 -51 -68 -67 -68
-21 0 -15 25 13 54 28 27 54 34 54 14z m300 -2 c0 -16 -56 -76 -71 -76 -18 0
-8 35 18 62 29 30 53 37 53 14z m124 -1 c-6 -16 -24 -21 -24 -7 0 11 11 22 21
22 5 0 6 -7 3 -15z"/>
<path d="M2300 1510 c-6 -11 -16 -18 -21 -14 -7 4 -7 -1 0 -15 14 -26 5 -27
-47 -6 -31 13 -35 14 -22 1 20 -19 90 -47 90 -36 0 5 11 12 25 16 l26 6 -21
15 c-14 10 -20 22 -17 34 7 25 0 24 -13 -1z"/>
<path d="M362 1371 c-15 -41 -16 -130 -2 -151 7 -10 9 1 4 37 -4 33 -2 64 6
82 6 16 10 38 8 48 -3 13 -7 9 -16 -16z"/>
<path d="M2280 1390 c0 -8 7 -28 16 -45 12 -23 14 -45 9 -90 -8 -64 1 -70 15
-10 5 24 4 54 -5 87 -13 50 -35 87 -35 58z"/>
<path d="M1835 1357 c-65 -65 -57 -121 13 -98 30 10 44 11 60 2 23 -12 72 -5
72 10 0 5 -14 9 -31 9 l-31 0 4 53 c3 50 2 52 -25 55 -21 3 -36 -5 -62 -31z
m65 -11 c0 -12 -63 -76 -75 -76 -15 0 -1 45 20 65 27 27 55 33 55 11z"/>
<path d="M391 1314 c0 -11 3 -14 6 -6 3 7 2 16 -1 19 -3 4 -6 -2 -5 -13z"/>
<path d="M2271 1314 c0 -11 3 -14 6 -6 3 7 2 16 -1 19 -3 4 -6 -2 -5 -13z"/>
<path d="M431 1211 c-14 -26 -14 -41 1 -17 9 17 12 15 24 -20 17 -48 17 -44
-1 -44 -8 0 -15 -5 -15 -11 0 -5 -6 -7 -12 -3 -10 5 -10 4 -2 -5 9 -10 17 -10
33 -2 21 12 39 56 27 68 -3 4 -7 -2 -7 -13 -1 -10 -5 -1 -8 20 -7 45 -25 57
-40 27z"/>
<path d="M2204 1216 c-3 -8 -4 -23 -1 -33 4 -16 6 -15 12 5 7 21 8 21 21 5 16
-21 18 -10 4 18 -13 23 -28 25 -36 5z"/>
<path d="M260 1176 c-12 -12 -13 -36 -2 -36 9 0 42 33 42 42 0 9 -29 5 -40 -6z"/>
<path d="M2382 1163 c15 -15 31 -24 35 -19 12 12 -11 39 -38 43 l-24 4 27 -28z"/>
<path d="M2181 1160 c-1 -9 6 -26 15 -38 17 -25 47 -31 38 -7 -4 8 -12 15 -19
15 -6 0 -17 10 -23 23 -7 14 -11 17 -11 7z"/>
<path d="M369 1120 c9 -19 20 -38 25 -42 5 -3 19 -33 31 -65 l22 -58 7 33 c7
28 4 37 -18 57 -20 18 -26 34 -26 65 0 25 -4 39 -10 35 -5 -3 -10 -2 -10 4 0
5 -8 9 -19 8 -18 -1 -18 -3 -2 -37z"/>
<path d="M2278 1146 c-21 -16 -25 -68 -5 -60 20 7 50 74 34 74 -6 0 -20 -7
-29 -14z"/>
<path d="M2376 1105 c-11 -8 -17 -17 -14 -20 2 -3 13 4 23 15 21 23 18 25 -9
5z"/>
<path d="M280 1106 c0 -2 7 -9 15 -16 9 -7 15 -8 15 -2 0 5 -7 12 -15 16 -8 3
-15 4 -15 2z"/>
<path d="M2228 1042 c-14 -3 -16 -14 -15 -60 2 -49 -1 -57 -15 -56 -19 2 -23
-13 -10 -34 7 -10 12 -8 24 5 23 27 50 83 39 83 -5 0 -12 -6 -14 -12 -3 -8 -6
-5 -6 5 -1 10 4 27 10 38 13 25 9 36 -13 31z"/>
<path d="M2180 988 c0 -19 2 -20 10 -8 13 19 13 30 0 30 -5 0 -10 -10 -10 -22z"/>
<path d="M440 919 c0 -3 8 -14 19 -23 17 -15 19 -15 25 -1 10 26 7 30 -19 30
-14 0 -25 -3 -25 -6z"/>
<path d="M545 910 c-4 -7 -2 -17 4 -23 21 -21 3 -117 -21 -117 -12 0 -9 28 3
32 7 2 7 11 0 28 -9 24 -10 24 -10 3 -1 -15 -6 -21 -15 -17 -21 8 -27 -24 -9
-46 9 -10 20 -17 25 -14 4 3 8 1 8 -3 0 -5 7 -18 16 -29 15 -19 15 -19 10 1
-3 11 3 33 14 49 12 19 16 35 10 45 -4 9 -9 18 -11 21 -1 3 3 15 9 26 9 18 8
25 -7 38 -14 12 -21 14 -26 6z"/>
<path d="M2089 894 c-10 -13 -10 -17 2 -24 9 -7 15 -5 17 5 2 8 8 15 13 15 5
0 9 5 9 10 0 15 -26 12 -41 -6z"/>
<path d="M2136 834 c-4 -14 -5 -29 -2 -31 3 -3 8 7 12 21 3 15 4 29 1 32 -2 3
-8 -7 -11 -22z"/>
<path d="M440 841 c0 -5 7 -11 15 -15 8 -3 15 -1 15 3 0 5 -7 11 -15 15 -8 3
-15 1 -15 -3z"/>
<path d="M380 825 c7 -9 15 -13 17 -11 7 7 -7 26 -19 26 -6 0 -6 -6 2 -15z"/>
<path d="M2195 830 c-8 -13 5 -13 25 0 13 8 13 10 -2 10 -9 0 -20 -4 -23 -10z"/>
<path d="M2271 826 c-9 -10 -8 -15 3 -19 8 -3 17 1 20 8 7 20 -9 28 -23 11z"/>
<path d="M2087 813 c-4 -3 2 -21 13 -38 12 -19 18 -41 14 -51 -3 -11 3 -6 14
9 11 16 21 27 23 25 10 -8 36 28 31 44 -7 27 -19 22 -39 -14 l-17 -33 -9 33
c-10 32 -17 38 -30 25z"/>
</g>
</svg>
